<svg width="92" height="158" viewBox="0 0 92 158" fill="none" xmlns="http://www.w3.org/2000/svg">
<path d="M4.89442 72V62.13H8.31042C9.42109 62.13 10.3591 62.3213 11.1244 62.704C11.8991 63.0867 12.4824 63.6467 12.8744 64.384C13.2758 65.112 13.4764 66.0033 13.4764 67.058C13.4764 68.1033 13.2758 68.9947 12.8744 69.732C12.4824 70.4693 11.8991 71.034 11.1244 71.426C10.3591 71.8087 9.42109 72 8.31042 72H4.89442ZM6.35042 70.782H8.22642C9.49576 70.782 10.4384 70.474 11.0544 69.858C11.6798 69.242 11.9924 68.3087 11.9924 67.058C11.9924 65.8073 11.6798 64.8787 11.0544 64.272C10.4384 63.656 9.49576 63.348 8.22642 63.348H6.35042V70.782ZM15.2951 72V66.694C15.2951 66.4047 15.2858 66.1153 15.2671 65.826C15.2578 65.5273 15.2391 65.2333 15.2111 64.944H16.5831L16.7371 66.764H16.5131C16.6064 66.3253 16.7651 65.9613 16.9891 65.672C17.2131 65.3827 17.4838 65.168 17.8011 65.028C18.1278 64.888 18.4684 64.818 18.8231 64.818C18.9724 64.818 19.0984 64.8273 19.2011 64.846C19.3038 64.8553 19.4064 64.874 19.5091 64.902L19.4951 66.162C19.3364 66.0967 19.1964 66.0593 19.0751 66.05C18.9631 66.0313 18.8231 66.022 18.6551 66.022C18.2444 66.022 17.8944 66.1153 17.6051 66.302C17.3158 66.4793 17.0964 66.722 16.9471 67.03C16.7978 67.338 16.7231 67.6693 16.7231 68.024V72H15.2951ZM23.5288 72.126C22.8288 72.126 22.2221 71.9813 21.7088 71.692C21.1954 71.3933 20.7988 70.9733 20.5188 70.432C20.2388 69.8813 20.0988 69.228 20.0988 68.472C20.0988 67.716 20.2388 67.0673 20.5188 66.526C20.7988 65.9753 21.1954 65.5553 21.7088 65.266C22.2221 64.9673 22.8288 64.818 23.5288 64.818C24.2288 64.818 24.8354 64.9673 25.3488 65.266C25.8714 65.5553 26.2728 65.9753 26.5528 66.526C26.8421 67.0673 26.9868 67.716 26.9868 68.472C26.9868 69.228 26.8421 69.8813 26.5528 70.432C26.2728 70.9733 25.8714 71.3933 25.3488 71.692C24.8354 71.9813 24.2288 72.126 23.5288 72.126ZM23.5288 71.02C24.1448 71.02 24.6348 70.8053 24.9988 70.376C25.3628 69.9467 25.5448 69.312 25.5448 68.472C25.5448 67.632 25.3628 67.002 24.9988 66.582C24.6348 66.1527 24.1448 65.938 23.5288 65.938C22.9221 65.938 22.4368 66.1527 22.0728 66.582C21.7088 67.002 21.5267 67.632 21.5267 68.472C21.5267 69.312 21.7041 69.9467 22.0588 70.376C22.4228 70.8053 22.9128 71.02 23.5288 71.02ZM28.6395 75.024V66.638C28.6395 66.3673 28.6255 66.092 28.5975 65.812C28.5788 65.5227 28.5555 65.2333 28.5275 64.944H29.8995L30.0395 66.54H29.8855C30.0348 66.008 30.3335 65.588 30.7815 65.28C31.2388 64.972 31.7802 64.818 32.4055 64.818C33.0308 64.818 33.5768 64.9673 34.0435 65.266C34.5102 65.5553 34.8695 65.9707 35.1215 66.512C35.3828 67.0533 35.5135 67.7067 35.5135 68.472C35.5135 69.228 35.3828 69.8813 35.1215 70.432C34.8695 70.9827 34.5102 71.4027 34.0435 71.692C33.5768 71.9813 33.0308 72.126 32.4055 72.126C31.7895 72.126 31.2528 71.9767 30.7955 71.678C30.3475 71.37 30.0488 70.9547 29.8995 70.432H30.0535V75.024H28.6395ZM32.0555 71.02C32.6715 71.02 33.1615 70.8053 33.5255 70.376C33.8988 69.9467 34.0855 69.312 34.0855 68.472C34.0855 67.632 33.8988 67.002 33.5255 66.582C33.1615 66.1527 32.6715 65.938 32.0555 65.938C31.4395 65.938 30.9448 66.1527 30.5715 66.582C30.2075 67.002 30.0255 67.632 30.0255 68.472C30.0255 69.312 30.2075 69.9467 30.5715 70.376C30.9448 70.8053 31.4395 71.02 32.0555 71.02ZM41.3232 72V66.036H39.9512V64.944H41.7152L41.3232 65.308V64.188C41.3232 63.3573 41.5285 62.7273 41.9392 62.298C42.3592 61.8593 42.9659 61.64 43.7592 61.64C43.9459 61.64 44.1465 61.654 44.3612 61.682C44.5759 61.71 44.7579 61.7567 44.9072 61.822V62.97C44.7952 62.9233 44.6552 62.886 44.4872 62.858C44.3192 62.8207 44.1559 62.802 43.9972 62.802C43.5865 62.802 43.2692 62.9233 43.0452 63.166C42.8305 63.3993 42.7232 63.768 42.7232 64.272V65.224L42.5132 64.944H47.2032V72H45.7892V66.036H42.7372V72H41.3232ZM45.6772 63.474V62.004H47.3152V63.474H45.6772ZM49.2704 72V61.696H50.6844V72H49.2704ZM56.0187 72.126C54.88 72.126 53.984 71.804 53.3307 71.16C52.6774 70.516 52.3507 69.6247 52.3507 68.486C52.3507 67.7487 52.4907 67.1047 52.7707 66.554C53.06 66.0033 53.4567 65.5787 53.9607 65.28C54.474 64.972 55.0667 64.818 55.7387 64.818C56.4014 64.818 56.9567 64.958 57.4047 65.238C57.8527 65.518 58.1934 65.9147 58.4267 66.428C58.66 66.932 58.7767 67.5293 58.7767 68.22V68.668H53.4567V67.856H57.8107L57.5727 68.038C57.5727 67.338 57.414 66.7967 57.0967 66.414C56.7887 66.022 56.3407 65.826 55.7527 65.826C55.0994 65.826 54.5954 66.0547 54.2407 66.512C53.886 66.96 53.7087 67.5807 53.7087 68.374V68.514C53.7087 69.3447 53.9094 69.97 54.3107 70.39C54.7214 70.81 55.3 71.02 56.0467 71.02C56.4574 71.02 56.84 70.964 57.1947 70.852C57.5587 70.7307 57.904 70.5347 58.2307 70.264L58.6927 71.23C58.366 71.5193 57.9694 71.7433 57.5027 71.902C57.036 72.0513 56.5414 72.126 56.0187 72.126ZM64.1317 72V61.696H65.5457V66.442H65.3497C65.555 65.91 65.8864 65.5087 66.3437 65.238C66.801 64.958 67.3284 64.818 67.9257 64.818C68.7657 64.818 69.391 65.0513 69.8017 65.518C70.2124 65.9753 70.4177 66.6707 70.4177 67.604V72H69.0037V67.688C69.0037 67.0813 68.8824 66.6427 68.6397 66.372C68.4064 66.092 68.033 65.952 67.5197 65.952C66.9224 65.952 66.4417 66.1387 66.0777 66.512C65.723 66.876 65.5457 67.3613 65.5457 67.968V72H64.1317ZM75.6925 72.126C74.5539 72.126 73.6579 71.804 73.0045 71.16C72.3512 70.516 72.0245 69.6247 72.0245 68.486C72.0245 67.7487 72.1645 67.1047 72.4445 66.554C72.7339 66.0033 73.1305 65.5787 73.6345 65.28C74.1479 64.972 74.7405 64.818 75.4125 64.818C76.0752 64.818 76.6305 64.958 77.0785 65.238C77.5265 65.518 77.8672 65.9147 78.1005 66.428C78.3339 66.932 78.4505 67.5293 78.4505 68.22V68.668H73.1305V67.856H77.4845L77.2465 68.038C77.2465 67.338 77.0879 66.7967 76.7705 66.414C76.4625 66.022 76.0145 65.826 75.4265 65.826C74.7732 65.826 74.2692 66.0547 73.9145 66.512C73.5599 66.96 73.3825 67.5807 73.3825 68.374V68.514C73.3825 69.3447 73.5832 69.97 73.9845 70.39C74.3952 70.81 74.9739 71.02 75.7205 71.02C76.1312 71.02 76.5139 70.964 76.8685 70.852C77.2325 70.7307 77.5779 70.5347 77.9045 70.264L78.3665 71.23C78.0399 71.5193 77.6432 71.7433 77.1765 71.902C76.7099 72.0513 76.2152 72.126 75.6925 72.126ZM80.0451 72V66.694C80.0451 66.4047 80.0358 66.1153 80.0171 65.826C80.0078 65.5273 79.9891 65.2333 79.9611 64.944H81.3331L81.4871 66.764H81.2631C81.3564 66.3253 81.5151 65.9613 81.7391 65.672C81.9631 65.3827 82.2338 65.168 82.5511 65.028C82.8778 64.888 83.2184 64.818 83.5731 64.818C83.7224 64.818 83.8484 64.8273 83.9511 64.846C84.0538 64.8553 84.1564 64.874 84.2591 64.902L84.2451 66.162C84.0864 66.0967 83.9464 66.0593 83.8251 66.05C83.7131 66.0313 83.5731 66.022 83.4051 66.022C82.9944 66.022 82.6444 66.1153 82.3551 66.302C82.0658 66.4793 81.8464 66.722 81.6971 67.03C81.5478 67.338 81.4731 67.6693 81.4731 68.024V72H80.0451ZM88.5168 72.126C87.3781 72.126 86.4821 71.804 85.8288 71.16C85.1754 70.516 84.8488 69.6247 84.8488 68.486C84.8488 67.7487 84.9888 67.1047 85.2688 66.554C85.5581 66.0033 85.9548 65.5787 86.4588 65.28C86.9721 64.972 87.5648 64.818 88.2368 64.818C88.8994 64.818 89.4548 64.958 89.9028 65.238C90.3508 65.518 90.6914 65.9147 90.9248 66.428C91.1581 66.932 91.2748 67.5293 91.2748 68.22V68.668H85.9548V67.856H90.3088L90.0708 68.038C90.0708 67.338 89.9121 66.7967 89.5948 66.414C89.2868 66.022 88.8388 65.826 88.2508 65.826C87.5974 65.826 87.0934 66.0547 86.7388 66.512C86.3841 66.96 86.2068 67.5807 86.2068 68.374V68.514C86.2068 69.3447 86.4074 69.97 86.8088 70.39C87.2194 70.81 87.7981 71.02 88.5448 71.02C88.9554 71.02 89.3381 70.964 89.6928 70.852C90.0568 70.7307 90.4021 70.5347 90.7288 70.264L91.1908 71.23C90.8641 71.5193 90.4674 71.7433 90.0008 71.902C89.5341 72.0513 89.0394 72.126 88.5168 72.126Z" fill="black"/>
<path d="M43.06 105.126C42.36 105.126 41.7533 104.981 41.24 104.692C40.7267 104.393 40.33 103.973 40.05 103.432C39.77 102.881 39.63 102.228 39.63 101.472C39.63 100.716 39.77 100.067 40.05 99.526C40.33 98.9753 40.7267 98.5553 41.24 98.266C41.7533 97.9673 42.36 97.818 43.06 97.818C43.76 97.818 44.3667 97.9673 44.88 98.266C45.4027 98.5553 45.804 98.9753 46.084 99.526C46.3733 100.067 46.518 100.716 46.518 101.472C46.518 102.228 46.3733 102.881 46.084 103.432C45.804 103.973 45.4027 104.393 44.88 104.692C44.3667 104.981 43.76 105.126 43.06 105.126ZM43.06 104.02C43.676 104.02 44.166 103.805 44.53 103.376C44.894 102.947 45.076 102.312 45.076 101.472C45.076 100.632 44.894 100.002 44.53 99.582C44.166 99.1527 43.676 98.938 43.06 98.938C42.4533 98.938 41.968 99.1527 41.604 99.582C41.24 100.002 41.058 100.632 41.058 101.472C41.058 102.312 41.2353 102.947 41.59 103.376C41.954 103.805 42.444 104.02 43.06 104.02ZM48.1428 105V99.694C48.1428 99.4047 48.1334 99.1153 48.1148 98.826C48.1054 98.5273 48.0868 98.2333 48.0588 97.944H49.4308L49.5848 99.764H49.3608C49.4541 99.3253 49.6128 98.9613 49.8368 98.672C50.0608 98.3827 50.3314 98.168 50.6488 98.028C50.9754 97.888 51.3161 97.818 51.6708 97.818C51.8201 97.818 51.9461 97.8273 52.0488 97.846C52.1514 97.8553 52.2541 97.874 52.3568 97.902L52.3428 99.162C52.1841 99.0967 52.0441 99.0593 51.9228 99.05C51.8108 99.0313 51.6708 99.022 51.5028 99.022C51.0921 99.022 50.7421 99.1153 50.4528 99.302C50.1634 99.4793 49.9441 99.722 49.7948 100.03C49.6454 100.338 49.5708 100.669 49.5708 101.024V105H48.1428Z" fill="black"/>
<path d="M23.162 146V136.13H27.278C28.342 136.13 29.1587 136.354 29.728 136.802C30.3067 137.25 30.596 137.88 30.596 138.692C30.596 139.299 30.414 139.807 30.05 140.218C29.686 140.629 29.1867 140.904 28.552 141.044V140.834C29.28 140.927 29.8447 141.184 30.246 141.604C30.6473 142.024 30.848 142.579 30.848 143.27C30.848 144.147 30.5493 144.824 29.952 145.3C29.364 145.767 28.5333 146 27.46 146H23.162ZM24.576 144.866H27.306C27.9687 144.866 28.4867 144.74 28.86 144.488C29.2427 144.236 29.434 143.811 29.434 143.214C29.434 142.617 29.2427 142.192 28.86 141.94C28.4867 141.688 27.9687 141.562 27.306 141.562H24.576V144.866ZM24.576 140.442H27.054C27.7633 140.442 28.2953 140.307 28.65 140.036C29.0047 139.765 29.182 139.369 29.182 138.846C29.182 138.323 29.0047 137.927 28.65 137.656C28.2953 137.385 27.7633 137.25 27.054 137.25H24.576V140.442ZM32.592 146V140.694C32.592 140.405 32.5827 140.115 32.564 139.826C32.5547 139.527 32.536 139.233 32.508 138.944H33.88L34.034 140.764H33.81C33.9033 140.325 34.062 139.961 34.286 139.672C34.51 139.383 34.7807 139.168 35.098 139.028C35.4247 138.888 35.7653 138.818 36.12 138.818C36.2693 138.818 36.3953 138.827 36.498 138.846C36.6007 138.855 36.7033 138.874 36.806 138.902L36.792 140.162C36.6333 140.097 36.4933 140.059 36.372 140.05C36.26 140.031 36.12 140.022 35.952 140.022C35.5413 140.022 35.1913 140.115 34.902 140.302C34.6127 140.479 34.3933 140.722 34.244 141.03C34.0947 141.338 34.02 141.669 34.02 142.024V146H32.592ZM40.8256 146.126C40.1256 146.126 39.519 145.981 39.0056 145.692C38.4923 145.393 38.0956 144.973 37.8156 144.432C37.5356 143.881 37.3956 143.228 37.3956 142.472C37.3956 141.716 37.5356 141.067 37.8156 140.526C38.0956 139.975 38.4923 139.555 39.0056 139.266C39.519 138.967 40.1256 138.818 40.8256 138.818C41.5256 138.818 42.1323 138.967 42.6456 139.266C43.1683 139.555 43.5696 139.975 43.8496 140.526C44.139 141.067 44.2836 141.716 44.2836 142.472C44.2836 143.228 44.139 143.881 43.8496 144.432C43.5696 144.973 43.1683 145.393 42.6456 145.692C42.1323 145.981 41.5256 146.126 40.8256 146.126ZM40.8256 145.02C41.4416 145.02 41.9316 144.805 42.2956 144.376C42.6596 143.947 42.8416 143.312 42.8416 142.472C42.8416 141.632 42.6596 141.002 42.2956 140.582C41.9316 140.153 41.4416 139.938 40.8256 139.938C40.219 139.938 39.7336 140.153 39.3696 140.582C39.0056 141.002 38.8236 141.632 38.8236 142.472C38.8236 143.312 39.001 143.947 39.3556 144.376C39.7196 144.805 40.2096 145.02 40.8256 145.02ZM47.7313 146L45.0573 138.944H46.5273L48.6133 144.824H48.2493L50.3913 138.944H51.4833L53.6113 144.824H53.2613L55.3473 138.944H56.7613L54.0733 146H52.7853L50.5733 140.008H51.2313L49.0473 146H47.7313ZM60.3486 146.126C59.7606 146.126 59.2193 146.051 58.7246 145.902C58.23 145.753 57.8193 145.543 57.4926 145.272L57.9266 144.306C58.272 144.567 58.6546 144.763 59.0746 144.894C59.4946 145.025 59.924 145.09 60.3626 145.09C60.876 145.09 61.2633 145.001 61.5246 144.824C61.786 144.637 61.9166 144.385 61.9166 144.068C61.9166 143.825 61.8326 143.629 61.6646 143.48C61.506 143.331 61.24 143.219 60.8666 143.144L59.5226 142.878C58.9253 142.747 58.4726 142.523 58.1646 142.206C57.8566 141.889 57.7026 141.483 57.7026 140.988C57.7026 140.568 57.8146 140.195 58.0386 139.868C58.272 139.541 58.5986 139.285 59.0186 139.098C59.448 138.911 59.9473 138.818 60.5166 138.818C61.0393 138.818 61.5246 138.893 61.9726 139.042C62.4206 139.191 62.794 139.406 63.0926 139.686L62.6446 140.624C62.3553 140.381 62.0286 140.195 61.6646 140.064C61.3006 139.924 60.932 139.854 60.5586 139.854C60.036 139.854 59.6486 139.952 59.3966 140.148C59.1446 140.344 59.0186 140.601 59.0186 140.918C59.0186 141.161 59.0933 141.361 59.2426 141.52C59.4013 141.669 59.6486 141.786 59.9846 141.87L61.3286 142.136C61.9633 142.267 62.4393 142.481 62.7566 142.78C63.074 143.079 63.2326 143.48 63.2326 143.984C63.2326 144.423 63.1113 144.805 62.8686 145.132C62.626 145.459 62.29 145.706 61.8606 145.874C61.4313 146.042 60.9273 146.126 60.3486 146.126ZM68.1613 146.126C67.0226 146.126 66.1266 145.804 65.4733 145.16C64.8199 144.516 64.4933 143.625 64.4933 142.486C64.4933 141.749 64.6333 141.105 64.9133 140.554C65.2026 140.003 65.5993 139.579 66.1033 139.28C66.6166 138.972 67.2093 138.818 67.8813 138.818C68.5439 138.818 69.0993 138.958 69.5473 139.238C69.9953 139.518 70.3359 139.915 70.5693 140.428C70.8026 140.932 70.9193 141.529 70.9193 142.22V142.668H65.5993V141.856H69.9533L69.7153 142.038C69.7153 141.338 69.5566 140.797 69.2393 140.414C68.9313 140.022 68.4833 139.826 67.8953 139.826C67.2419 139.826 66.7379 140.055 66.3833 140.512C66.0286 140.96 65.8513 141.581 65.8513 142.374V142.514C65.8513 143.345 66.0519 143.97 66.4533 144.39C66.8639 144.81 67.4426 145.02 68.1893 145.02C68.5999 145.02 68.9826 144.964 69.3373 144.852C69.7013 144.731 70.0466 144.535 70.3733 144.264L70.8353 145.23C70.5086 145.519 70.1119 145.743 69.6453 145.902C69.1786 146.051 68.6839 146.126 68.1613 146.126Z" fill="black"/>
<rect x="6.4" y="124.4" width="80.2" height="33.2" rx="3.6" stroke="#CCD5E7" stroke-width="0.8"/>
<path d="M50 4H34C32.9391 4 31.9217 4.42143 31.1716 5.17157C30.4214 5.92172 30 6.93913 30 8V40C30 41.0609 30.4214 42.0783 31.1716 42.8284C31.9217 43.5786 32.9391 44 34 44H58C59.0609 44 60.0783 43.5786 60.8284 42.8284C61.5786 42.0783 62 41.0609 62 40V16L50 4Z" stroke="#0052CC" stroke-width="1.71429" stroke-linecap="round" stroke-linejoin="round"/>
<path d="M50 4V16H62" stroke="#0052CC" stroke-width="1.71429" stroke-linecap="round" stroke-linejoin="round"/>
<path d="M54 26H38" stroke="#0052CC" stroke-width="1.71429" stroke-linecap="round" stroke-linejoin="round"/>
<path d="M54 34H38" stroke="#0052CC" stroke-width="1.71429" stroke-linecap="round" stroke-linejoin="round"/>
<path d="M42 18H40H38" stroke="#0052CC" stroke-width="1.71429" stroke-linecap="round" stroke-linejoin="round"/>
</svg>
