<svg width="18" height="16" viewBox="0 0 18 16" fill="none" xmlns="http://www.w3.org/2000/svg">
<mask id="path-1-inside-1_2315_1330" fill="white">
<path d="M3.00011 1.4002L3.00011 14.6002H10.2001V1.4002L3.00011 1.4002ZM2.40011 0.200195L10.8001 0.200195C10.9592 0.200195 11.1119 0.263409 11.2244 0.375931C11.3369 0.488453 11.4001 0.641065 11.4001 0.800195V15.2002C11.4001 15.3593 11.3369 15.5119 11.2244 15.6245C11.1119 15.737 10.9592 15.8002 10.8001 15.8002H2.40011C2.24098 15.8002 2.08837 15.737 1.97585 15.6245C1.86333 15.5119 1.80011 15.3593 1.80011 15.2002L1.80011 0.800195C1.80011 0.641065 1.86333 0.488453 1.97585 0.375931C2.08837 0.263409 2.24098 0.200195 2.40011 0.200195Z"/>
<path d="M4.2001 3.80016L9.0001 3.80016V5.00016H4.2001V3.80016ZM4.2001 7.40016H9.0001V8.60016H4.2001V7.40016ZM4.2001 11.0002H9.0001V12.2002H4.2001V11.0002ZM11.4001 8.60016H13.8001V9.80016H11.4001V8.60016ZM11.4001 11.0002H13.8001V12.2002H11.4001V11.0002ZM0.600098 14.6002H17.4001V15.8002H0.600098V14.6002Z"/>
<path d="M11.4001 6.20018V14.6002H15.0001V6.20018H11.4001ZM10.8001 5.00018L15.6001 5.00018C15.7592 5.00018 15.9118 5.06339 16.0243 5.17591C16.1368 5.28844 16.2001 5.44105 16.2001 5.60018V15.2002C16.2001 15.3593 16.1368 15.5119 16.0243 15.6244C15.9118 15.737 15.7592 15.8002 15.6001 15.8002L10.8001 15.8002C10.641 15.8002 10.4883 15.737 10.3758 15.6244C10.2633 15.5119 10.2001 15.3593 10.2001 15.2002V5.60018C10.2001 5.44105 10.2633 5.28844 10.3758 5.17591C10.4883 5.06339 10.6409 5.00018 10.8001 5.00018Z"/>
</mask>
<path d="M3.00011 1.4002L3.00011 14.6002H10.2001V1.4002L3.00011 1.4002ZM2.40011 0.200195L10.8001 0.200195C10.9592 0.200195 11.1119 0.263409 11.2244 0.375931C11.3369 0.488453 11.4001 0.641065 11.4001 0.800195V15.2002C11.4001 15.3593 11.3369 15.5119 11.2244 15.6245C11.1119 15.737 10.9592 15.8002 10.8001 15.8002H2.40011C2.24098 15.8002 2.08837 15.737 1.97585 15.6245C1.86333 15.5119 1.80011 15.3593 1.80011 15.2002L1.80011 0.800195C1.80011 0.641065 1.86333 0.488453 1.97585 0.375931C2.08837 0.263409 2.24098 0.200195 2.40011 0.200195Z" fill="#1C1C1C"/>
<path d="M4.2001 3.80016L9.0001 3.80016V5.00016H4.2001V3.80016ZM4.2001 7.40016H9.0001V8.60016H4.2001V7.40016ZM4.2001 11.0002H9.0001V12.2002H4.2001V11.0002ZM11.4001 8.60016H13.8001V9.80016H11.4001V8.60016ZM11.4001 11.0002H13.8001V12.2002H11.4001V11.0002ZM0.600098 14.6002H17.4001V15.8002H0.600098V14.6002Z" fill="#1C1C1C"/>
<path d="M11.4001 6.20018V14.6002H15.0001V6.20018H11.4001ZM10.8001 5.00018L15.6001 5.00018C15.7592 5.00018 15.9118 5.06339 16.0243 5.17591C16.1368 5.28844 16.2001 5.44105 16.2001 5.60018V15.2002C16.2001 15.3593 16.1368 15.5119 16.0243 15.6244C15.9118 15.737 15.7592 15.8002 15.6001 15.8002L10.8001 15.8002C10.641 15.8002 10.4883 15.737 10.3758 15.6244C10.2633 15.5119 10.2001 15.3593 10.2001 15.2002V5.60018C10.2001 5.44105 10.2633 5.28844 10.3758 5.17591C10.4883 5.06339 10.6409 5.00018 10.8001 5.00018Z" fill="#1C1C1C"/>
<path d="M3.00011 1.4002V-0.599805L1.00011 -0.599805V1.4002H3.00011ZM3.00011 14.6002H1.00011V16.6002H3.00011L3.00011 14.6002ZM10.2001 14.6002V16.6002H12.2001V14.6002H10.2001ZM10.2001 1.4002H12.2001V-0.599805H10.2001V1.4002ZM2.40011 0.200195V-1.7998V0.200195ZM10.8001 0.200195V-1.7998V0.200195ZM4.2001 3.80016V1.80016L2.2001 1.80016V3.80016H4.2001ZM9.0001 3.80016H11.0001V1.80016H9.0001V3.80016ZM9.0001 5.00016V7.00016L11.0001 7.00016V5.00016L9.0001 5.00016ZM4.2001 5.00016H2.2001V7.00016H4.2001V5.00016ZM4.2001 7.40016V5.40016H2.2001V7.40016H4.2001ZM9.0001 7.40016L11.0001 7.40016V5.40016L9.0001 5.40016V7.40016ZM9.0001 8.60016V10.6002H11.0001V8.60016H9.0001ZM4.2001 8.60016H2.2001V10.6002H4.2001V8.60016ZM4.2001 11.0002V9.00016H2.2001V11.0002H4.2001ZM9.0001 11.0002H11.0001V9.00016H9.0001V11.0002ZM9.0001 12.2002V14.2002H11.0001V12.2002H9.0001ZM4.2001 12.2002H2.2001L2.2001 14.2002H4.2001V12.2002ZM11.4001 8.60016V6.60016L9.4001 6.60016V8.60016H11.4001ZM13.8001 8.60016H15.8001V6.60016H13.8001V8.60016ZM13.8001 9.80016V11.8002H15.8001V9.80016H13.8001ZM11.4001 9.80016H9.4001V11.8002H11.4001V9.80016ZM11.4001 11.0002V9.00016H9.4001V11.0002H11.4001ZM13.8001 11.0002H15.8001V9.00016H13.8001V11.0002ZM13.8001 12.2002V14.2002H15.8001V12.2002H13.8001ZM11.4001 12.2002H9.4001V14.2002H11.4001V12.2002ZM0.600098 14.6002L0.600098 12.6002H-1.3999L-1.3999 14.6002H0.600098ZM17.4001 14.6002H19.4001V12.6002H17.4001V14.6002ZM17.4001 15.8002V17.8002H19.4001V15.8002H17.4001ZM0.600098 15.8002H-1.3999V17.8002H0.600098L0.600098 15.8002ZM11.4001 6.20018V4.20018H9.40006V6.20018L11.4001 6.20018ZM11.4001 14.6002H9.40006V16.6002H11.4001V14.6002ZM15.0001 14.6002V16.6002H17.0001V14.6002H15.0001ZM15.0001 6.20018H17.0001V4.20018L15.0001 4.20018V6.20018ZM16.0243 5.17591L14.6101 6.59013L16.0243 5.17591ZM15.6001 15.8002V13.8002H15.6001L15.6001 15.8002ZM10.3758 15.6244L11.79 14.2102L10.3758 15.6244ZM10.3758 5.17591L11.79 6.59013L10.3758 5.17591ZM1.00011 1.4002L1.00011 14.6002H5.00011L5.00011 1.4002L1.00011 1.4002ZM3.00011 16.6002H10.2001V12.6002H3.00011L3.00011 16.6002ZM12.2001 14.6002V1.4002L8.20011 1.4002V14.6002H12.2001ZM10.2001 -0.599805L3.00011 -0.599805V3.4002L10.2001 3.4002V-0.599805ZM2.40011 2.2002L10.8001 2.2002V-1.7998L2.40011 -1.7998V2.2002ZM10.8001 2.2002C10.4288 2.2002 10.0727 2.0527 9.81016 1.79014L12.6386 -1.03828C12.151 -1.52588 11.4897 -1.7998 10.8001 -1.7998V2.2002ZM9.81016 1.79014C9.54761 1.52759 9.40011 1.1715 9.40011 0.800195L13.4001 0.800195C13.4001 0.110636 13.1262 -0.550685 12.6386 -1.03828L9.81016 1.79014ZM9.40011 0.800195V15.2002H13.4001V0.800195L9.40011 0.800195ZM9.40011 15.2002C9.40011 14.8289 9.54761 14.4728 9.81017 14.2102L12.6386 17.0387C13.1262 16.5511 13.4001 15.8898 13.4001 15.2002H9.40011ZM9.81017 14.2102C10.0727 13.9477 10.4288 13.8002 10.8001 13.8002V17.8002C11.4897 17.8002 12.151 17.5263 12.6386 17.0387L9.81017 14.2102ZM10.8001 13.8002H2.40011V17.8002H10.8001V13.8002ZM2.40011 13.8002C2.77141 13.8002 3.12751 13.9477 3.39006 14.2102L0.561636 17.0387C1.04923 17.5263 1.71055 17.8002 2.40011 17.8002V13.8002ZM3.39006 14.2102C3.65261 14.4728 3.80011 14.8289 3.80011 15.2002H-0.199888C-0.199888 15.8898 0.0740384 16.5511 0.561636 17.0387L3.39006 14.2102ZM3.80011 15.2002L3.80011 0.800195L-0.199888 0.800195L-0.199888 15.2002H3.80011ZM3.80011 0.800195C3.80011 1.1715 3.65261 1.52759 3.39006 1.79014L0.561635 -1.03828C0.0740409 -0.550688 -0.199888 0.110632 -0.199888 0.800195L3.80011 0.800195ZM3.39006 1.79014C3.12751 2.0527 2.77142 2.2002 2.40011 2.2002V-1.7998C1.71055 -1.7998 1.04923 -1.52588 0.561635 -1.03828L3.39006 1.79014ZM4.2001 5.80016H9.0001V1.80016L4.2001 1.80016V5.80016ZM7.0001 3.80016V5.00016L11.0001 5.00016V3.80016H7.0001ZM9.0001 3.00016L4.2001 3.00016V7.00016H9.0001V3.00016ZM6.2001 5.00016V3.80016L2.2001 3.80016V5.00016H6.2001ZM4.2001 9.40016H9.0001V5.40016H4.2001V9.40016ZM7.0001 7.40016V8.60016H11.0001V7.40016L7.0001 7.40016ZM9.0001 6.60016H4.2001V10.6002H9.0001V6.60016ZM6.2001 8.60016V7.40016H2.2001L2.2001 8.60016H6.2001ZM4.2001 13.0002H9.0001V9.00016H4.2001V13.0002ZM7.0001 11.0002V12.2002H11.0001V11.0002H7.0001ZM9.0001 10.2002H4.2001V14.2002H9.0001V10.2002ZM6.2001 12.2002V11.0002H2.2001V12.2002H6.2001ZM11.4001 10.6002H13.8001V6.60016H11.4001V10.6002ZM11.8001 8.60016V9.80016H15.8001V8.60016H11.8001ZM13.8001 7.80016H11.4001V11.8002H13.8001V7.80016ZM13.4001 9.80016V8.60016H9.4001V9.80016H13.4001ZM11.4001 13.0002H13.8001V9.00016H11.4001V13.0002ZM11.8001 11.0002V12.2002H15.8001V11.0002H11.8001ZM13.8001 10.2002H11.4001V14.2002H13.8001V10.2002ZM13.4001 12.2002V11.0002H9.4001V12.2002H13.4001ZM0.600098 16.6002H17.4001V12.6002H0.600098L0.600098 16.6002ZM15.4001 14.6002V15.8002H19.4001V14.6002H15.4001ZM17.4001 13.8002H0.600098L0.600098 17.8002H17.4001V13.8002ZM2.6001 15.8002L2.6001 14.6002H-1.3999V15.8002H2.6001ZM9.40006 6.20018V14.6002H13.4001V6.20018L9.40006 6.20018ZM11.4001 16.6002H15.0001V12.6002H11.4001V16.6002ZM17.0001 14.6002V6.20018H13.0001V14.6002H17.0001ZM15.0001 4.20018H11.4001V8.20018H15.0001V4.20018ZM10.8001 7.00018L15.6001 7.00018V3.00018H10.8001V7.00018ZM15.6001 7.00018C15.2288 7.00018 14.8727 6.85268 14.6101 6.59013L17.4385 3.7617C16.9509 3.2741 16.2896 3.00018 15.6001 3.00018V7.00018ZM14.6101 6.59013C14.3476 6.32757 14.2001 5.97148 14.2001 5.60018H18.2001C18.2001 4.91062 17.9261 4.2493 17.4385 3.7617L14.6101 6.59013ZM14.2001 5.60018V15.2002H18.2001V5.60018H14.2001ZM14.2001 15.2002C14.2001 14.8289 14.3476 14.4728 14.6101 14.2102L17.4385 17.0387C17.9261 16.5511 18.2001 15.8897 18.2001 15.2002H14.2001ZM14.6101 14.2102C14.8727 13.9477 15.2288 13.8002 15.6001 13.8002V17.8002C16.2896 17.8002 16.9509 17.5263 17.4385 17.0387L14.6101 14.2102ZM15.6001 13.8002L10.8001 13.8002L10.8001 17.8002L15.6001 17.8002L15.6001 13.8002ZM10.8001 13.8002C11.1714 13.8002 11.5274 13.9477 11.79 14.2102L8.96158 17.0387C9.44919 17.5263 10.1106 17.8002 10.8001 17.8002V13.8002ZM11.79 14.2102C12.0526 14.4728 12.2001 14.8289 12.2001 15.2002H8.20006C8.20006 15.8897 8.47398 16.5511 8.96158 17.0387L11.79 14.2102ZM12.2001 15.2002V5.60018L8.20006 5.60018V15.2002H12.2001ZM12.2001 5.60018C12.2001 5.97148 12.0526 6.32757 11.79 6.59013L8.96158 3.7617C8.47399 4.2493 8.20006 4.91062 8.20006 5.60018L12.2001 5.60018ZM11.79 6.59013C11.5275 6.85268 11.1714 7.00018 10.8001 7.00018V3.00018C10.1105 3.00018 9.44918 3.2741 8.96158 3.7617L11.79 6.59013Z" fill="#888888" mask="url(#path-1-inside-1_2315_1330)"/>
</svg>
