<svg width="15" height="14" viewBox="0 0 15 14" fill="none" xmlns="http://www.w3.org/2000/svg">
<path d="M0.667059 12.25H8.60294C8.96779 12.25 9.26471 11.9556 9.26471 11.5938V3.28125C9.26471 3.27119 9.26029 3.26244 9.25897 3.25281C9.25774 3.24364 9.25582 3.23458 9.25324 3.22569C9.24459 3.1884 9.226 3.1541 9.19941 3.12637L6.11162 0.0643125C6.07663 0.0315345 6.03192 0.0108215 5.98412 0.00525C5.97485 0.004375 5.96603 0 5.95588 0H0.664412C0.298235 0 0 0.294437 0 0.65625V11.5938C0 11.9556 0.299118 12.25 0.667059 12.25ZM6.17647 0.746813L8.51162 3.0625H6.39706C6.33856 3.0625 6.28245 3.03945 6.24108 2.99843C6.19971 2.95741 6.17647 2.90177 6.17647 2.84375V0.746813ZM0.441176 0.65625C0.441176 0.5355 0.541324 0.4375 0.664412 0.4375H5.73529V2.84375C5.73529 3.20556 6.03221 3.5 6.39706 3.5H8.82353V11.5938C8.82353 11.6518 8.80029 11.7074 8.75892 11.7484C8.71755 11.7895 8.66145 11.8125 8.60294 11.8125H0.667059C0.637743 11.8128 0.608645 11.8075 0.581427 11.7967C0.554208 11.7859 0.529403 11.7698 0.508428 11.7495C0.487452 11.7292 0.470717 11.705 0.459178 11.6783C0.447639 11.6515 0.441522 11.6228 0.441176 11.5938V0.65625Z" fill="#71AAFF"/>
<path d="M1.98529 5.25H7.27941C7.33792 5.25 7.39402 5.22695 7.43539 5.18593C7.47676 5.14491 7.5 5.08927 7.5 5.03125C7.5 4.97323 7.47676 4.91759 7.43539 4.87657C7.39402 4.83555 7.33792 4.8125 7.27941 4.8125H1.98529C1.92679 4.8125 1.87068 4.83555 1.82931 4.87657C1.78795 4.91759 1.76471 4.97323 1.76471 5.03125C1.76471 5.08927 1.78795 5.14491 1.82931 5.18593C1.87068 5.22695 1.92679 5.25 1.98529 5.25ZM1.98529 7H7.27941C7.33792 7 7.39402 6.97695 7.43539 6.93593C7.47676 6.89491 7.5 6.83927 7.5 6.78125C7.5 6.72323 7.47676 6.66759 7.43539 6.62657C7.39402 6.58555 7.33792 6.5625 7.27941 6.5625H1.98529C1.92679 6.5625 1.87068 6.58555 1.82931 6.62657C1.78795 6.66759 1.76471 6.72323 1.76471 6.78125C1.76471 6.83927 1.78795 6.89491 1.82931 6.93593C1.87068 6.97695 1.92679 7 1.98529 7ZM1.98529 3.5H4.19118C4.24968 3.5 4.30579 3.47695 4.34716 3.43593C4.38852 3.39491 4.41176 3.33927 4.41176 3.28125C4.41176 3.22323 4.38852 3.16759 4.34716 3.12657C4.30579 3.08555 4.24968 3.0625 4.19118 3.0625H1.98529C1.92679 3.0625 1.87068 3.08555 1.82931 3.12657C1.78795 3.16759 1.76471 3.22323 1.76471 3.28125C1.76471 3.33927 1.78795 3.39491 1.82931 3.43593C1.87068 3.47695 1.92679 3.5 1.98529 3.5ZM1.98529 8.75H7.27941C7.33792 8.75 7.39402 8.72695 7.43539 8.68593C7.47676 8.64491 7.5 8.58927 7.5 8.53125C7.5 8.47323 7.47676 8.41759 7.43539 8.37657C7.39402 8.33555 7.33792 8.3125 7.27941 8.3125H1.98529C1.92679 8.3125 1.87068 8.33555 1.82931 8.37657C1.78795 8.41759 1.76471 8.47323 1.76471 8.53125C1.76471 8.58927 1.78795 8.64491 1.82931 8.68593C1.87068 8.72695 1.92679 8.75 1.98529 8.75ZM1.98529 10.5H7.27941C7.33792 10.5 7.39402 10.477 7.43539 10.4359C7.47676 10.3949 7.5 10.3393 7.5 10.2812C7.5 10.2232 7.47676 10.1676 7.43539 10.1266C7.39402 10.0855 7.33792 10.0625 7.27941 10.0625H1.98529C1.92679 10.0625 1.87068 10.0855 1.82931 10.1266C1.78795 10.1676 1.76471 10.2232 1.76471 10.2812C1.76471 10.3393 1.78795 10.3949 1.82931 10.4359C1.87068 10.477 1.92679 10.5 1.98529 10.5Z" fill="#71AAFF"/>
<path d="M9.48529 2.1875H11.4706V4.59375C11.4706 4.95556 11.7675 5.25 12.1324 5.25H14.5588V13.3438C14.5588 13.4018 14.5356 13.4574 14.4942 13.4984C14.4528 13.5395 14.3967 13.5625 14.3382 13.5625H6.40235C6.37304 13.5628 6.34394 13.5575 6.31672 13.5467C6.2895 13.5359 6.2647 13.5198 6.24372 13.4995C6.22275 13.4792 6.20601 13.455 6.19447 13.4283C6.18293 13.4015 6.17682 13.3728 6.17647 13.3438V12.9062C6.17647 12.8482 6.15323 12.7926 6.11186 12.7516C6.07049 12.7105 6.01439 12.6875 5.95588 12.6875C5.89738 12.6875 5.84127 12.7105 5.7999 12.7516C5.75853 12.7926 5.73529 12.8482 5.73529 12.9062V13.3438C5.73529 13.7056 6.03441 14 6.40235 14H14.3382C14.7031 14 15 13.7056 15 13.3438V5.03125C15 5.02119 14.9956 5.01244 14.9943 5.00281C14.993 4.99364 14.9911 4.98458 14.9885 4.97569C14.9799 4.9384 14.9613 4.9041 14.9347 4.87638L11.8469 1.81431C11.8122 1.78126 11.7673 1.76063 11.7194 1.75569C11.7101 1.75437 11.7013 1.75 11.6912 1.75H9.48529C9.42679 1.75 9.37068 1.77305 9.32931 1.81407C9.28795 1.85509 9.26471 1.91073 9.26471 1.96875C9.26471 2.02677 9.28795 2.08241 9.32931 2.12343C9.37068 2.16445 9.42679 2.1875 9.48529 2.1875ZM12.1324 4.8125C12.0738 4.8125 12.0177 4.78945 11.9764 4.74843C11.935 4.70741 11.9118 4.65177 11.9118 4.59375V2.49681L14.2469 4.8125H12.1324Z" fill="#71AAFF"/>
<path d="M10.3676 7H13.0147C13.0732 7 13.1293 6.97695 13.1707 6.93593C13.2121 6.89491 13.2353 6.83927 13.2353 6.78125C13.2353 6.72323 13.2121 6.66759 13.1707 6.62657C13.1293 6.58555 13.0732 6.5625 13.0147 6.5625H10.3676C10.3091 6.5625 10.253 6.58555 10.2117 6.62657C10.1703 6.66759 10.1471 6.72323 10.1471 6.78125C10.1471 6.83927 10.1703 6.89491 10.2117 6.93593C10.253 6.97695 10.3091 7 10.3676 7ZM10.3676 8.75H13.0147C13.0732 8.75 13.1293 8.72695 13.1707 8.68593C13.2121 8.64491 13.2353 8.58927 13.2353 8.53125C13.2353 8.47323 13.2121 8.41759 13.1707 8.37657C13.1293 8.33555 13.0732 8.3125 13.0147 8.3125H10.3676C10.3091 8.3125 10.253 8.33555 10.2117 8.37657C10.1703 8.41759 10.1471 8.47323 10.1471 8.53125C10.1471 8.58927 10.1703 8.64491 10.2117 8.68593C10.253 8.72695 10.3091 8.75 10.3676 8.75ZM10.3676 10.5H13.0147C13.0732 10.5 13.1293 10.477 13.1707 10.4359C13.2121 10.3949 13.2353 10.3393 13.2353 10.2812C13.2353 10.2232 13.2121 10.1676 13.1707 10.1266C13.1293 10.0855 13.0732 10.0625 13.0147 10.0625H10.3676C10.3091 10.0625 10.253 10.0855 10.2117 10.1266C10.1703 10.1676 10.1471 10.2232 10.1471 10.2812C10.1471 10.3393 10.1703 10.3949 10.2117 10.4359C10.253 10.477 10.3091 10.5 10.3676 10.5ZM10.3676 12.25H13.0147C13.0732 12.25 13.1293 12.227 13.1707 12.1859C13.2121 12.1449 13.2353 12.0893 13.2353 12.0312C13.2353 11.9732 13.2121 11.9176 13.1707 11.8766C13.1293 11.8355 13.0732 11.8125 13.0147 11.8125H10.3676C10.3091 11.8125 10.253 11.8355 10.2117 11.8766C10.1703 11.9176 10.1471 11.9732 10.1471 12.0312C10.1471 12.0893 10.1703 12.1449 10.2117 12.1859C10.253 12.227 10.3091 12.25 10.3676 12.25Z" fill="#71AAFF"/>
</svg>
